<svg xmlns="http://www.w3.org/2000/svg" xmlns:xlink="http://www.w3.org/1999/xlink" width="25" height="25" viewBox="0 0 25 25">
  <defs>
    <style>
      .cls-1 {
        clip-path: url(#clip-Web_1920_1);
      }

      .cls-2, .cls-6 {
        fill: #fff;
      }

      .cls-2, .cls-3 {
        stroke: #211c12;
      }

      .cls-3, .cls-5 {
        fill: none;
      }

      .cls-3 {
        stroke-linecap: round;
      }

      .cls-4 {
        stroke: none;
      }
    </style>
    <clipPath id="clip-Web_1920_1">
      <rect width="25" height="25"/>
    </clipPath>
  </defs>
  <g id="Web_1920_1" data-name="Web 1920 – 1" class="cls-1">
    <rect class="cls-6" width="25" height="25"/>
    <path id="Trazado_44" data-name="Trazado 44" class="cls-2" d="M20.028,61.517l.795.741V77.705l-10.6-.062Z" transform="translate(-17.277 -51.312) rotate(-16)"/>
    <path id="Trazado_45" data-name="Trazado 45" class="cls-2" d="M11.016,61.517l-.795.741V77.705l10.6-.062Z" transform="translate(-26.381 -48.701) rotate(-16)"/>
    <g id="Elipse_11" data-name="Elipse 11" class="cls-2" transform="translate(12.563 19.194) rotate(-16)">
      <circle class="cls-4" cx="1.5" cy="1.5" r="1.5"/>
      <circle class="cls-5" cx="1.5" cy="1.5" r="1"/>
    </g>
    <path id="Trazado_41" data-name="Trazado 41" class="cls-2" d="M20.067,41.928A4.565,4.565,0,0,1,22.791,40c.713-.233,3.111-.825,3.111-.825h2.6V52.184s-.556.015-1.889,0c-.719.189-3.824,1.158-3.824,1.158l-2.724,2.032Z" transform="translate(-19.865 -27.683) rotate(-16)"/>
    <path id="Trazado_42" data-name="Trazado 42" class="cls-2" d="M28.5,41.928A4.565,4.565,0,0,0,25.78,40c-.713-.233-3.111-.825-3.111-.825h-2.6V52.184s.556.015,1.889,0c.719.189,3.824,1.158,3.824,1.158L28.5,55.374Z" transform="translate(-28.516 -25.203) rotate(-16)"/>
    <path id="Trazado_46" data-name="Trazado 46" class="cls-2" d="M20.028,61.517l.795.741V77.705l-10.6-.062Z" transform="translate(10.245 -57.792) rotate(7)"/>
    <path id="Trazado_48" data-name="Trazado 48" class="cls-2" d="M11.016,61.517l-.795.741V77.705l10.6-.062Z" transform="translate(0.844 -58.946) rotate(7)"/>
    <g id="Elipse_12" data-name="Elipse 12" class="cls-2" transform="translate(10.164 18.769) rotate(7)">
      <circle class="cls-4" cx="1.5" cy="1.5" r="1.5"/>
      <circle class="cls-5" cx="1.5" cy="1.5" r="1"/>
    </g>
    <path id="Trazado_47" data-name="Trazado 47" class="cls-2" d="M20.067,41.928A4.565,4.565,0,0,1,22.791,40c.713-.233,3.111-.825,3.111-.825h2.6V52.184s-.556.015-1.889,0c-.719.189-3.824,1.158-3.824,1.158l-2.724,2.032Z" transform="translate(-1.369 -37.053) rotate(7)"/>
    <path id="Trazado_49" data-name="Trazado 49" class="cls-2" d="M28.5,41.928A4.565,4.565,0,0,0,25.78,40c-.713-.233-3.111-.825-3.111-.825h-2.6V52.184s.556.015,1.889,0c.719.189,3.824,1.158,3.824,1.158L28.5,55.374Z" transform="translate(-10.302 -38.15) rotate(7)"/>
    <line id="Línea_92" data-name="Línea 92" class="cls-3" y1="3" x2="1" transform="translate(2.123 16.5)"/>
    <line id="Línea_93" data-name="Línea 93" class="cls-3" x1="0.5" y1="3" transform="translate(20.623 18.5)"/>
    <line id="Línea_94" data-name="Línea 94" class="cls-3" y1="2" x2="0.5" transform="translate(5.123 20.5)"/>
    <line id="Línea_95" data-name="Línea 95" class="cls-3" x1="1.5" y1="2" transform="translate(22.623 15.5)"/>
  </g>
</svg>
